<svg
	xmlns="http://www.w3.org/2000/svg" xml:space="preserve" width="128" height="128" viewBox="0 0 24 24">
	<path d="M22.5 12.5h-15a.5.5 0 0 1 0-1h15a.5.5 0 0 1 0 1z"/>
	<path d="M11.5 16.5a.502.502 0 0 1-.354-.146l-4-4a.5.5 0 0 1 0-.707l4-4a.5.5 0 0 1 .707.707L8.207 12l3.646 3.646a.5.5 0 0 1-.353.854z"/>
	<path d="M11 23C4.935 23 0 18.065 0 12S4.935 1 11 1c4.655 0 8.823 2.947 10.372 7.333a.5.5 0 0 1-.943.333A10.013 10.013 0 0 0 11 2C5.486 2 1 6.486 1 12s4.486 10 10 10a10.01 10.01 0 0 0 9.428-6.667.5.5 0 0 1 .943.333A11.012 11.012 0 0 1 11 23z"/>
</svg>