<svg xmlns="http://www.w3.org/2000/svg" xml:space="preserve" width="128" height="128" viewBox="0 0 28 28">
	<path fill="#FFE577" d="M10.83 2.04c3.422-.147 7.235 3.324 7.87 4.986S25.075 20.996 22.875 23s-9.21-3.215-12.045-3.411c-2.835-.196-7.112-2.422-7.418-4.584s-2.026-7.281.413-8.778S10.83 2.04 10.83 2.04z" />
	<path d="M23.934 26a.501.501 0 0 1-.356-.149l-7.182-7.286a8.983 8.983 0 0 1-5.348 1.777C6.059 20.342 2 16.227 2 11.169c0-2.473.959-4.792 2.7-6.53A8.92 8.92 0 0 1 11.042 2h.012c4.988.001 9.047 4.115 9.047 9.173a9.195 9.195 0 0 1-1.492 5.037l7.247 7.347a.502.502 0 0 1 0 .702l-1.565 1.592a.507.507 0 0 1-.357.149zm-7.496-8.604c.13 0 .259.05.356.149l7.139 7.242.864-.879-7.191-7.289a.502.502 0 0 1-.05-.643 8.203 8.203 0 0 0 1.544-4.804C19.101 6.666 15.49 3 11.053 3h-.011a7.93 7.93 0 0 0-5.635 2.346A8.168 8.168 0 0 0 3 11.169c0 4.507 3.61 8.173 8.048 8.173a7.878 7.878 0 0 0 5.072-1.832.502.502 0 0 1 .318-.114z" />
	<path d="M11.048 18c-3.859 0-7-3.141-7-7s3.141-7 7-7 7 3.141 7 7-3.141 7-7 7zm0-13c-3.309 0-6 2.691-6 6s2.691 6 6 6 6-2.691 6-6-2.692-6-6-6z" />
</svg>